<svg width="90" height="90" viewBox="0 0 90 90" fill="none" xmlns="http://www.w3.org/2000/svg">
<path fill-rule="evenodd" clip-rule="evenodd" d="M30 10C30 7.34784 31.0536 4.8043 32.9289 2.92893C34.8043 1.05357 37.3478 0 40 0H50C52.6522 0 55.1957 1.05357 57.0711 2.92893C58.9464 4.8043 60 7.34784 60 10V30H80C82.6522 30 85.1957 31.0536 87.0711 32.9289C88.9464 34.8043 90 37.3478 90 40V50C90 52.6522 88.9464 55.1957 87.0711 57.0711C85.1957 58.9464 82.6522 60 80 60H60V80C60 82.6522 58.9464 85.1957 57.0711 87.0711C55.1957 88.9464 52.6522 90 50 90H40C37.3478 90 34.8043 88.9464 32.9289 87.0711C31.0536 85.1957 30 82.6522 30 80V60H10C7.34784 60 4.8043 58.9464 2.92893 57.0711C1.05357 55.1957 0 52.6522 0 50V40C0 37.3478 1.05357 34.8043 2.92893 32.9289C4.8043 31.0536 7.34784 30 10 30H30V10ZM50 10H40V35C40 36.3261 39.4732 37.5979 38.5355 38.5355C37.5979 39.4732 36.3261 40 35 40H10V50H35C36.3261 50 37.5979 50.5268 38.5355 51.4645C39.4732 52.4021 40 53.6739 40 55V80H50V55C50 53.6739 50.5268 52.4021 51.4645 51.4645C52.4021 50.5268 53.6739 50 55 50H80V40H55C53.6739 40 52.4021 39.4732 51.4645 38.5355C50.5268 37.5979 50 36.3261 50 35V10Z" fill="#28C28B"/>
</svg>
