<svg width="209" height="282" viewBox="0 0 209 282" fill="none" xmlns="http://www.w3.org/2000/svg">
<g filter="url(#filter0_d_555_554)">
<rect x="4.66602" width="200" height="274" rx="12" fill="white" shape-rendering="crispEdges"/>
<g clip-path="url(#clip0_555_554)">
<path d="M104.5 131.283H103.503L102.903 132.08C92.1886 146.304 74.4783 153.144 57.595 150.917L57.5948 150.917C38.6144 148.416 21.2206 134.604 15.1643 108.711C14.8918 107.546 14.9552 106.327 15.3472 105.196C15.7391 104.065 16.4435 103.068 17.3788 102.321C18.3141 101.574 19.442 101.107 20.6317 100.975C21.8214 100.843 23.0242 101.05 24.1007 101.574L24.1018 101.574C42.7097 110.607 59.803 100.834 73.3383 90.0475C79.0942 85.4619 85.3009 83.355 91.3489 84.0696L91.3497 84.0697C96.0212 84.6198 100.004 86.7881 103.093 89.8464L104.498 91.2379L105.906 89.8481C109.004 86.7875 112.98 84.6198 117.659 84.0698L117.66 84.0696C123.707 83.3551 129.914 85.4614 135.678 90.0472C149.206 100.834 166.299 110.607 184.907 101.574C185.983 101.053 187.185 100.847 188.373 100.98C189.561 101.113 190.688 101.58 191.622 102.327C192.557 103.074 193.26 104.07 193.652 105.2C194.044 106.33 194.107 107.548 193.836 108.713C187.788 134.604 170.394 148.416 151.414 150.917L151.414 150.917C134.53 153.144 116.82 146.304 106.106 132.08L105.506 131.283H104.509H104.5Z" fill="#28C28B" stroke="white" stroke-width="4"/>
</g>
<path d="M58.489 249V235H64.529C66.089 235 67.2957 235.313 68.149 235.94C69.0157 236.567 69.449 237.453 69.449 238.6C69.449 239.36 69.269 240 68.909 240.52C68.5623 241.04 68.0823 241.433 67.469 241.7C66.869 241.967 66.209 242.1 65.489 242.1L65.829 241.62C66.7223 241.62 67.489 241.76 68.129 242.04C68.7823 242.307 69.289 242.713 69.649 243.26C70.009 243.793 70.189 244.46 70.189 245.26C70.189 246.447 69.749 247.367 68.869 248.02C68.0023 248.673 66.689 249 64.929 249H58.489ZM59.969 247.78H64.909C66.1357 247.78 67.0757 247.573 67.729 247.16C68.3823 246.733 68.709 246.06 68.709 245.14C68.709 244.233 68.3823 243.573 67.729 243.16C67.0757 242.733 66.1357 242.52 64.909 242.52H59.809V241.3H64.429C65.549 241.3 66.4157 241.087 67.029 240.66C67.6557 240.233 67.969 239.6 67.969 238.76C67.969 237.907 67.6557 237.273 67.029 236.86C66.4157 236.433 65.549 236.22 64.429 236.22H59.969V247.78ZM79.8471 249V246.68L79.7871 246.3V242.42C79.7871 241.527 79.5338 240.84 79.0271 240.36C78.5338 239.88 77.7938 239.64 76.8071 239.64C76.1271 239.64 75.4804 239.753 74.8671 239.98C74.2538 240.207 73.7338 240.507 73.3071 240.88L72.6671 239.82C73.2004 239.367 73.8404 239.02 74.5871 238.78C75.3338 238.527 76.1204 238.4 76.9471 238.4C78.3071 238.4 79.3538 238.74 80.0871 239.42C80.8338 240.087 81.2071 241.107 81.2071 242.48V249H79.8471ZM76.2271 249.1C75.4404 249.1 74.7538 248.973 74.1671 248.72C73.5938 248.453 73.1538 248.093 72.8471 247.64C72.5404 247.173 72.3871 246.64 72.3871 246.04C72.3871 245.493 72.5138 245 72.7671 244.56C73.0338 244.107 73.4604 243.747 74.0471 243.48C74.6471 243.2 75.4471 243.06 76.4471 243.06H80.0671V244.12H76.4871C75.4738 244.12 74.7671 244.3 74.3671 244.66C73.9804 245.02 73.7871 245.467 73.7871 246C73.7871 246.6 74.0204 247.08 74.4871 247.44C74.9538 247.8 75.6071 247.98 76.4471 247.98C77.2471 247.98 77.9338 247.8 78.5071 247.44C79.0938 247.067 79.5204 246.533 79.7871 245.84L80.1071 246.82C79.8404 247.513 79.3738 248.067 78.7071 248.48C78.0538 248.893 77.2271 249.1 76.2271 249.1ZM85.064 249V238.5H86.424V241.36L86.284 240.86C86.5773 240.06 87.0707 239.453 87.764 239.04C88.4573 238.613 89.3173 238.4 90.344 238.4V239.78C90.2907 239.78 90.2373 239.78 90.184 239.78C90.1307 239.767 90.0773 239.76 90.024 239.76C88.9173 239.76 88.0507 240.1 87.424 240.78C86.7973 241.447 86.484 242.4 86.484 243.64V249H85.064ZM98.3551 249.1C97.4351 249.1 96.6084 248.893 95.8751 248.48C95.1417 248.053 94.5617 247.44 94.1351 246.64C93.7084 245.84 93.4951 244.873 93.4951 243.74C93.4951 242.593 93.7084 241.627 94.1351 240.84C94.5751 240.04 95.1617 239.433 95.8951 239.02C96.6284 238.607 97.4484 238.4 98.3551 238.4C99.3551 238.4 100.248 238.627 101.035 239.08C101.835 239.52 102.462 240.14 102.915 240.94C103.368 241.74 103.595 242.673 103.595 243.74C103.595 244.793 103.368 245.727 102.915 246.54C102.462 247.34 101.835 247.967 101.035 248.42C100.248 248.873 99.3551 249.1 98.3551 249.1ZM92.9351 249V234.16H94.3551V241.6L94.1551 243.72L94.2951 245.84V249H92.9351ZM98.2551 247.84C99.0017 247.84 99.6684 247.673 100.255 247.34C100.842 246.993 101.308 246.513 101.655 245.9C102.002 245.273 102.175 244.553 102.175 243.74C102.175 242.913 102.002 242.193 101.655 241.58C101.308 240.967 100.842 240.493 100.255 240.16C99.6684 239.813 99.0017 239.64 98.2551 239.64C97.5084 239.64 96.8351 239.813 96.2351 240.16C95.6484 240.493 95.1817 240.967 94.8351 241.58C94.5017 242.193 94.3351 242.913 94.3351 243.74C94.3351 244.553 94.5017 245.273 94.8351 245.9C95.1817 246.513 95.6484 246.993 96.2351 247.34C96.8351 247.673 97.5084 247.84 98.2551 247.84ZM110.95 249.1C109.856 249.1 108.896 248.873 108.07 248.42C107.243 247.953 106.596 247.32 106.13 246.52C105.663 245.707 105.43 244.78 105.43 243.74C105.43 242.7 105.65 241.78 106.09 240.98C106.543 240.18 107.156 239.553 107.93 239.1C108.716 238.633 109.596 238.4 110.57 238.4C111.556 238.4 112.43 238.627 113.19 239.08C113.963 239.52 114.57 240.147 115.01 240.96C115.45 241.76 115.67 242.687 115.67 243.74C115.67 243.807 115.663 243.88 115.65 243.96C115.65 244.027 115.65 244.1 115.65 244.18H106.51V243.12H114.89L114.33 243.54C114.33 242.78 114.163 242.107 113.83 241.52C113.51 240.92 113.07 240.453 112.51 240.12C111.95 239.787 111.303 239.62 110.57 239.62C109.85 239.62 109.203 239.787 108.63 240.12C108.056 240.453 107.61 240.92 107.29 241.52C106.97 242.12 106.81 242.807 106.81 243.58V243.8C106.81 244.6 106.983 245.307 107.33 245.92C107.69 246.52 108.183 246.993 108.81 247.34C109.45 247.673 110.176 247.84 110.99 247.84C111.63 247.84 112.223 247.727 112.77 247.5C113.33 247.273 113.81 246.927 114.21 246.46L115.01 247.38C114.543 247.94 113.956 248.367 113.25 248.66C112.556 248.953 111.79 249.1 110.95 249.1ZM124.847 249V246.68L124.787 246.3V242.42C124.787 241.527 124.534 240.84 124.027 240.36C123.534 239.88 122.794 239.64 121.807 239.64C121.127 239.64 120.48 239.753 119.867 239.98C119.254 240.207 118.734 240.507 118.307 240.88L117.667 239.82C118.2 239.367 118.84 239.02 119.587 238.78C120.334 238.527 121.12 238.4 121.947 238.4C123.307 238.4 124.354 238.74 125.087 239.42C125.834 240.087 126.207 241.107 126.207 242.48V249H124.847ZM121.227 249.1C120.44 249.1 119.754 248.973 119.167 248.72C118.594 248.453 118.154 248.093 117.847 247.64C117.54 247.173 117.387 246.64 117.387 246.04C117.387 245.493 117.514 245 117.767 244.56C118.034 244.107 118.46 243.747 119.047 243.48C119.647 243.2 120.447 243.06 121.447 243.06H125.067V244.12H121.487C120.474 244.12 119.767 244.3 119.367 244.66C118.98 245.02 118.787 245.467 118.787 246C118.787 246.6 119.02 247.08 119.487 247.44C119.954 247.8 120.607 247.98 121.447 247.98C122.247 247.98 122.934 247.8 123.507 247.44C124.094 247.067 124.52 246.533 124.787 245.84L125.107 246.82C124.84 247.513 124.374 248.067 123.707 248.48C123.054 248.893 122.227 249.1 121.227 249.1ZM130.064 249V238.5H131.424V241.36L131.284 240.86C131.577 240.06 132.071 239.453 132.764 239.04C133.457 238.613 134.317 238.4 135.344 238.4V239.78C135.291 239.78 135.237 239.78 135.184 239.78C135.131 239.767 135.077 239.76 135.024 239.76C133.917 239.76 133.051 240.1 132.424 240.78C131.797 241.447 131.484 242.4 131.484 243.64V249H130.064ZM137.935 249V238.5H139.355V249H137.935ZM138.655 236.18C138.362 236.18 138.115 236.08 137.915 235.88C137.715 235.68 137.615 235.44 137.615 235.16C137.615 234.88 137.715 234.647 137.915 234.46C138.115 234.26 138.362 234.16 138.655 234.16C138.948 234.16 139.195 234.253 139.395 234.44C139.595 234.627 139.695 234.86 139.695 235.14C139.695 235.433 139.595 235.68 139.395 235.88C139.208 236.08 138.962 236.18 138.655 236.18ZM149.886 249V246.68L149.826 246.3V242.42C149.826 241.527 149.573 240.84 149.066 240.36C148.573 239.88 147.833 239.64 146.846 239.64C146.166 239.64 145.52 239.753 144.906 239.98C144.293 240.207 143.773 240.507 143.346 240.88L142.706 239.82C143.24 239.367 143.88 239.02 144.626 238.78C145.373 238.527 146.16 238.4 146.986 238.4C148.346 238.4 149.393 238.74 150.126 239.42C150.873 240.087 151.246 241.107 151.246 242.48V249H149.886ZM146.266 249.1C145.48 249.1 144.793 248.973 144.206 248.72C143.633 248.453 143.193 248.093 142.886 247.64C142.58 247.173 142.426 246.64 142.426 246.04C142.426 245.493 142.553 245 142.806 244.56C143.073 244.107 143.5 243.747 144.086 243.48C144.686 243.2 145.486 243.06 146.486 243.06H150.106V244.12H146.526C145.513 244.12 144.806 244.3 144.406 244.66C144.02 245.02 143.826 245.467 143.826 246C143.826 246.6 144.06 247.08 144.526 247.44C144.993 247.8 145.646 247.98 146.486 247.98C147.286 247.98 147.973 247.8 148.546 247.44C149.133 247.067 149.56 246.533 149.826 245.84L150.146 246.82C149.88 247.513 149.413 248.067 148.746 248.48C148.093 248.893 147.266 249.1 146.266 249.1Z" fill="#222222"/>
</g>
<defs>
<filter id="filter0_d_555_554" x="0.666016" y="0" width="208" height="282" filterUnits="userSpaceOnUse" color-interpolation-filters="sRGB">
<feFlood flood-opacity="0" result="BackgroundImageFix"/>
<feColorMatrix in="SourceAlpha" type="matrix" values="0 0 0 0 0 0 0 0 0 0 0 0 0 0 0 0 0 0 127 0" result="hardAlpha"/>
<feOffset dy="4"/>
<feGaussianBlur stdDeviation="2"/>
<feComposite in2="hardAlpha" operator="out"/>
<feColorMatrix type="matrix" values="0 0 0 0 0 0 0 0 0 0 0 0 0 0 0 0 0 0 0.25 0"/>
<feBlend mode="normal" in2="BackgroundImageFix" result="effect1_dropShadow_555_554"/>
<feBlend mode="normal" in="SourceGraphic" in2="effect1_dropShadow_555_554" result="shape"/>
</filter>
<clipPath id="clip0_555_554">
<rect width="200" height="200" fill="white" transform="translate(4.66602 20)"/>
</clipPath>
</defs>
</svg>
