<svg width="33" height="33" viewBox="0 0 33 33" fill="none" xmlns="http://www.w3.org/2000/svg">
<path d="M2.5 16.5C2.5 19.2689 3.32109 21.9757 4.85943 24.278C6.39777 26.5803 8.58427 28.3747 11.1424 29.4343C13.7006 30.4939 16.5155 30.7712 19.2313 30.231C21.947 29.6908 24.4416 28.3574 26.3995 26.3995C28.3574 24.4416 29.6908 21.947 30.231 19.2313C30.7712 16.5155 30.4939 13.7006 29.4343 11.1424C28.3747 8.58427 26.5803 6.39777 24.278 4.85943C21.9757 3.32109 19.2689 2.5 16.5 2.5C12.787 2.5 9.22601 3.975 6.6005 6.6005C3.975 9.22601 2.5 12.787 2.5 16.5ZM8.5 15.5H20.65L15.07 9.893L16.5 8.5L24.5 16.5L16.5 24.5L15.07 23.073L20.65 17.5H8.5V15.5Z" fill="#28C28B"/>
</svg>
