<svg width="260" height="261" viewBox="0 0 260 261" fill="none" xmlns="http://www.w3.org/2000/svg">
<path d="M118.955 159.533C116.084 159.533 113.332 158.392 111.302 156.363C109.273 154.333 108.133 151.581 108.133 148.711C108.133 145.841 109.273 143.088 111.302 141.059C113.332 139.029 116.084 137.889 118.955 137.889C121.825 137.889 124.577 139.029 126.607 141.059C128.636 143.088 129.776 145.841 129.776 148.711C129.776 151.581 128.636 154.333 126.607 156.363C124.577 158.392 121.825 159.533 118.955 159.533Z" fill="#28C28B"/>
<path fill-rule="evenodd" clip-rule="evenodd" d="M24.6544 101.817C26.0589 101.817 27.432 101.702 28.7739 101.471V159.533H10.7377C9.78104 159.533 8.86352 159.913 8.18703 160.589C7.51055 161.266 7.1305 162.183 7.1305 163.14V170.354C7.1305 171.311 7.51055 172.229 8.18703 172.905C8.86352 173.582 9.78104 173.962 10.7377 173.962H248.815C249.772 173.962 250.689 173.582 251.366 172.905C252.042 172.229 252.422 171.311 252.422 170.354V163.14C252.422 162.183 252.042 161.266 251.366 160.589C250.689 159.913 249.772 159.533 248.815 159.533H230.779V101.471C232.126 101.702 233.499 101.817 234.899 101.817C248.62 101.817 259.637 90.6202 259.637 76.9343V59.6917C259.642 57.4035 259.244 55.1323 258.461 52.9823L242.733 9.62332C241.8 7.04263 240.095 4.81226 237.848 3.23598C235.602 1.6597 232.924 0.814137 230.18 0.814453H29.3655C26.6229 0.817639 23.9479 1.66563 21.7044 3.24307C19.4609 4.82051 17.7577 7.05081 16.8267 9.63054L1.0992 52.9823C0.313723 55.1319 -0.0867935 57.4031 -0.0839695 59.6917V76.9343C-0.0839695 90.6202 10.9325 101.817 24.6544 101.817ZM14.6624 57.9025L30.1374 15.2434H229.408L244.883 57.9025C245.095 58.4797 245.201 59.0761 245.201 59.6917V76.9343C245.218 79.6871 244.142 82.3343 242.209 84.2943C240.276 86.2544 237.644 87.3671 234.891 87.3881C229.264 87.3881 224.589 82.7708 224.589 76.9343C224.589 75.0209 223.829 73.1859 222.476 71.8329C221.123 70.4799 219.288 69.7198 217.375 69.7198C215.461 69.7198 213.626 70.4799 212.273 71.8329C210.92 73.1859 210.16 75.0209 210.16 76.9343C210.177 79.6871 209.101 82.3343 207.168 84.2943C205.235 86.2544 202.603 87.3671 199.851 87.3881C194.223 87.3881 189.548 82.7708 189.548 76.9415C189.548 75.0281 188.788 73.1931 187.435 71.8401C186.082 70.4872 184.247 69.7271 182.334 69.7271C180.42 69.7271 178.585 70.4872 177.232 71.8401C175.88 73.1931 175.119 75.0281 175.119 76.9415C175.119 82.7708 170.444 87.3881 164.81 87.3881C159.175 87.3881 154.508 82.7708 154.508 76.9343C154.508 75.0209 153.748 73.1859 152.395 71.8329C151.042 70.4799 149.207 69.7198 147.293 69.7198C145.38 69.7198 143.545 70.4799 142.192 71.8329C140.839 73.1859 140.079 75.0209 140.079 76.9343C140.096 79.6859 139.021 82.3319 137.09 84.2918C135.158 86.2517 132.528 87.3652 129.776 87.3881C127.025 87.3671 124.394 86.2554 122.461 84.2969C120.529 82.3384 119.452 79.6931 119.467 76.9415C119.467 75.0281 118.707 73.1931 117.354 71.8401C116.001 70.4872 114.166 69.7271 112.253 69.7271C110.339 69.7271 108.504 70.4872 107.151 71.8401C105.798 73.1931 105.038 75.0281 105.038 76.9415C105.038 82.7708 100.37 87.3881 94.7358 87.3881C89.1013 87.3881 84.4263 82.7708 84.4263 76.9343C84.4263 75.0209 83.6662 73.1859 82.3133 71.8329C80.9603 70.4799 79.1253 69.7198 77.2119 69.7198C75.2985 69.7198 73.4634 70.4799 72.1105 71.8329C70.7575 73.1859 69.9974 75.0209 69.9974 76.9343C69.9974 82.7636 65.3296 87.3881 59.6951 87.3881C54.0606 87.3881 49.3857 82.7708 49.3857 76.9343C49.3857 75.0209 48.6256 73.1859 47.2726 71.8329C45.9196 70.4799 44.0846 69.7198 42.1712 69.7198C40.2578 69.7198 38.4227 70.4799 37.0698 71.8329C35.7168 73.1859 34.9567 75.0209 34.9567 76.9343C34.9567 82.7636 30.2889 87.3881 24.6544 87.3881C19.0127 87.3881 14.345 82.7708 14.345 76.9343V59.6917C14.345 59.0713 14.4508 58.4749 14.6624 57.9025ZM216.35 95.4827C211.83 99.5693 205.951 101.827 199.858 101.817C196.598 101.823 193.371 101.179 190.363 99.9225C187.356 98.6664 184.628 96.8235 182.341 94.5015C180.053 96.8244 177.325 98.6678 174.316 99.9239C171.307 101.18 168.078 101.824 164.817 101.817C161.558 101.823 158.33 101.179 155.322 99.9225C152.315 98.6664 149.588 96.8235 147.3 94.5015C145.012 96.8244 142.284 98.6678 139.275 99.9239C136.266 101.18 133.037 101.824 129.776 101.817C126.516 101.824 123.287 101.18 120.278 99.9239C117.269 98.6678 114.541 96.8244 112.253 94.5015C109.965 96.8235 107.238 98.6664 104.231 99.9225C101.223 101.179 97.9951 101.823 94.7358 101.817C87.8748 101.817 81.6776 99.0106 77.2119 94.5015C74.9246 96.8235 72.1974 98.6664 69.1898 99.9225C66.1822 101.179 62.9545 101.823 59.6951 101.817C53.3464 101.817 47.5748 99.4146 43.2028 95.4827V159.533H61.239C60.2823 159.533 59.3648 159.153 58.6883 158.476C58.0118 157.8 57.6318 156.882 57.6318 155.926V141.497C57.6318 140.54 58.0118 139.622 58.6883 138.946C59.3648 138.269 60.2823 137.889 61.239 137.889H82.8824C83.8391 137.889 84.7566 138.269 85.4331 138.946C86.1096 139.622 86.4897 140.54 86.4897 141.497V145.104H97.3114C98.2681 145.104 99.1856 145.484 99.8621 146.16C100.539 146.837 100.919 147.754 100.919 148.711V155.926C100.919 156.882 100.539 157.8 99.8621 158.476C99.1856 159.153 98.2681 159.533 97.3114 159.533H216.35V95.4827ZM14.345 195.605C14.345 193.692 15.1051 191.857 16.458 190.504C17.811 189.151 19.646 188.391 21.5594 188.391H237.994C239.907 188.391 241.742 189.151 243.095 190.504C244.448 191.857 245.208 193.692 245.208 195.605V253.321C245.208 255.234 244.448 257.069 243.095 258.422C241.742 259.775 239.907 260.535 237.994 260.535H21.5594C19.646 260.535 17.811 259.775 16.458 258.422C15.1051 257.069 14.345 255.234 14.345 253.321V195.605ZM28.7739 246.106V202.82H230.779V246.106H28.7739Z" fill="#28C28B"/>
</svg>
