<svg width="209" height="282" viewBox="0 0 209 282" fill="none" xmlns="http://www.w3.org/2000/svg">
<g filter="url(#filter0_d_555_556)">
<rect x="4.33398" width="200" height="274" rx="12" fill="white" shape-rendering="crispEdges"/>
<path d="M102.25 142.172L82.1618 122.083L155.331 48.9142C156.475 47.77 157.892 47.1563 159.713 47.099C161.436 47.0447 162.882 47.6188 164.164 48.9094L164.169 48.9142L175.419 60.1642C176.736 61.481 177.333 62.9262 177.333 64.5833C177.333 66.2404 176.736 67.6856 175.419 69.0024L102.25 142.172ZM54.3333 193C48.422 193 42.5458 191.558 36.6861 188.628C31.9981 186.284 28.0655 183.36 24.864 179.863C27.7017 179.174 30.5012 177.741 33.2518 175.651C37.578 172.363 39.6667 167.597 39.6667 161.667C39.6667 155.247 41.8908 149.854 46.3725 145.372C50.8543 140.891 56.2466 138.667 62.6667 138.667C69.0867 138.667 74.479 140.891 78.9608 145.372C83.4426 149.854 85.6667 155.247 85.6667 161.667C85.6667 170.299 82.6165 177.638 76.4608 183.794C70.3051 189.95 62.9654 193 54.3333 193Z" fill="#28C28B" stroke="white" stroke-width="4"/>
<path d="M45.5984 249V235H46.8184L53.2184 245.92H52.5784L58.9184 235H60.1384V249H58.7184V237.22H59.0584L53.2184 247.22H52.5184L46.6384 237.22H47.0184V249H45.5984ZM70.9799 249V246.68L70.9199 246.3V242.42C70.9199 241.527 70.6666 240.84 70.1599 240.36C69.6666 239.88 68.9266 239.64 67.9399 239.64C67.2599 239.64 66.6133 239.753 65.9999 239.98C65.3866 240.207 64.8666 240.507 64.4399 240.88L63.7999 239.82C64.3333 239.367 64.9733 239.02 65.7199 238.78C66.4666 238.527 67.2533 238.4 68.0799 238.4C69.4399 238.4 70.4866 238.74 71.2199 239.42C71.9666 240.087 72.3399 241.107 72.3399 242.48V249H70.9799ZM67.3599 249.1C66.5733 249.1 65.8866 248.973 65.2999 248.72C64.7266 248.453 64.2866 248.093 63.9799 247.64C63.6733 247.173 63.5199 246.64 63.5199 246.04C63.5199 245.493 63.6466 245 63.8999 244.56C64.1666 244.107 64.5933 243.747 65.1799 243.48C65.7799 243.2 66.5799 243.06 67.5799 243.06H71.1999V244.12H67.6199C66.6066 244.12 65.8999 244.3 65.4999 244.66C65.1133 245.02 64.9199 245.467 64.9199 246C64.9199 246.6 65.1533 247.08 65.6199 247.44C66.0866 247.8 66.7399 247.98 67.5799 247.98C68.3799 247.98 69.0666 247.8 69.6399 247.44C70.2266 247.067 70.6533 246.533 70.9199 245.84L71.2399 246.82C70.9733 247.513 70.5066 248.067 69.8399 248.48C69.1866 248.893 68.3599 249.1 67.3599 249.1ZM80.3768 249.1C79.3768 249.1 78.4768 248.873 77.6768 248.42C76.8901 247.967 76.2701 247.34 75.8168 246.54C75.3635 245.74 75.1368 244.807 75.1368 243.74C75.1368 242.687 75.3635 241.76 75.8168 240.96C76.2701 240.147 76.8901 239.52 77.6768 239.08C78.4768 238.627 79.3768 238.4 80.3768 238.4C81.3101 238.4 82.1368 238.607 82.8568 239.02C83.5901 239.433 84.1701 240.04 84.5968 240.84C85.0235 241.627 85.2368 242.593 85.2368 243.74C85.2368 244.887 85.0168 245.86 84.5768 246.66C84.1501 247.447 83.5701 248.053 82.8368 248.48C82.1168 248.893 81.2968 249.1 80.3768 249.1ZM80.4768 247.84C81.2235 247.84 81.8901 247.673 82.4768 247.34C83.0768 246.993 83.5435 246.513 83.8768 245.9C84.2235 245.273 84.3968 244.553 84.3968 243.74C84.3968 242.927 84.2235 242.213 83.8768 241.6C83.5435 240.987 83.0768 240.507 82.4768 240.16C81.8901 239.813 81.2235 239.64 80.4768 239.64C79.7435 239.64 79.0835 239.813 78.4968 240.16C77.9101 240.507 77.4435 240.987 77.0968 241.6C76.7501 242.213 76.5768 242.927 76.5768 243.74C76.5768 244.553 76.7501 245.273 77.0968 245.9C77.4435 246.513 77.9101 246.993 78.4968 247.34C79.0835 247.673 79.7435 247.84 80.4768 247.84ZM84.3768 252.88V245.88L84.5768 243.76L84.4368 241.66V238.5H85.7968V252.88H84.3768ZM94.0915 249.1C93.1982 249.1 92.4182 248.933 91.7515 248.6C91.0848 248.267 90.5648 247.767 90.1915 247.1C89.8315 246.433 89.6515 245.6 89.6515 244.6V238.5H91.0715V244.44C91.0715 245.56 91.3448 246.407 91.8915 246.98C92.4515 247.54 93.2315 247.82 94.2315 247.82C94.9648 247.82 95.5982 247.673 96.1315 247.38C96.6782 247.073 97.0915 246.633 97.3715 246.06C97.6648 245.487 97.8115 244.8 97.8115 244V238.5H99.2315V249H97.8715V246.12L98.0915 246.64C97.7582 247.413 97.2382 248.02 96.5315 248.46C95.8382 248.887 95.0248 249.1 94.0915 249.1ZM103.189 249V238.5H104.609V249H103.189ZM103.909 236.18C103.616 236.18 103.369 236.08 103.169 235.88C102.969 235.68 102.869 235.44 102.869 235.16C102.869 234.88 102.969 234.647 103.169 234.46C103.369 234.26 103.616 234.16 103.909 234.16C104.202 234.16 104.449 234.253 104.649 234.44C104.849 234.627 104.949 234.86 104.949 235.14C104.949 235.433 104.849 235.68 104.649 235.88C104.462 236.08 104.216 236.18 103.909 236.18ZM115.14 249V246.68L115.08 246.3V242.42C115.08 241.527 114.827 240.84 114.32 240.36C113.827 239.88 113.087 239.64 112.1 239.64C111.42 239.64 110.773 239.753 110.16 239.98C109.547 240.207 109.027 240.507 108.6 240.88L107.96 239.82C108.493 239.367 109.133 239.02 109.88 238.78C110.627 238.527 111.413 238.4 112.24 238.4C113.6 238.4 114.647 238.74 115.38 239.42C116.127 240.087 116.5 241.107 116.5 242.48V249H115.14ZM111.52 249.1C110.733 249.1 110.047 248.973 109.46 248.72C108.887 248.453 108.447 248.093 108.14 247.64C107.833 247.173 107.68 246.64 107.68 246.04C107.68 245.493 107.807 245 108.06 244.56C108.327 244.107 108.753 243.747 109.34 243.48C109.94 243.2 110.74 243.06 111.74 243.06H115.36V244.12H111.78C110.767 244.12 110.06 244.3 109.66 244.66C109.273 245.02 109.08 245.467 109.08 246C109.08 246.6 109.313 247.08 109.78 247.44C110.247 247.8 110.9 247.98 111.74 247.98C112.54 247.98 113.227 247.8 113.8 247.44C114.387 247.067 114.813 246.533 115.08 245.84L115.4 246.82C115.133 247.513 114.667 248.067 114 248.48C113.347 248.893 112.52 249.1 111.52 249.1ZM124.837 252.98C123.877 252.98 122.957 252.84 122.077 252.56C121.197 252.28 120.484 251.88 119.937 251.36L120.657 250.28C121.15 250.72 121.757 251.067 122.477 251.32C123.21 251.587 123.984 251.72 124.797 251.72C126.13 251.72 127.11 251.407 127.737 250.78C128.364 250.167 128.677 249.207 128.677 247.9V245.28L128.877 243.48L128.737 241.68V238.5H130.097V247.72C130.097 249.533 129.65 250.86 128.757 251.7C127.877 252.553 126.57 252.98 124.837 252.98ZM124.577 248.6C123.577 248.6 122.677 248.387 121.877 247.96C121.077 247.52 120.444 246.913 119.977 246.14C119.524 245.367 119.297 244.48 119.297 243.48C119.297 242.48 119.524 241.6 119.977 240.84C120.444 240.067 121.077 239.467 121.877 239.04C122.677 238.613 123.577 238.4 124.577 238.4C125.51 238.4 126.35 238.593 127.097 238.98C127.844 239.367 128.437 239.94 128.877 240.7C129.317 241.46 129.537 242.387 129.537 243.48C129.537 244.573 129.317 245.5 128.877 246.26C128.437 247.02 127.844 247.6 127.097 248C126.35 248.4 125.51 248.6 124.577 248.6ZM124.717 247.34C125.49 247.34 126.177 247.18 126.777 246.86C127.377 246.527 127.85 246.073 128.197 245.5C128.544 244.913 128.717 244.24 128.717 243.48C128.717 242.72 128.544 242.053 128.197 241.48C127.85 240.907 127.377 240.46 126.777 240.14C126.177 239.807 125.49 239.64 124.717 239.64C123.957 239.64 123.27 239.807 122.657 240.14C122.057 240.46 121.584 240.907 121.237 241.48C120.904 242.053 120.737 242.72 120.737 243.48C120.737 244.24 120.904 244.913 121.237 245.5C121.584 246.073 122.057 246.527 122.657 246.86C123.27 247.18 123.957 247.34 124.717 247.34ZM138.508 249.1C137.415 249.1 136.455 248.873 135.628 248.42C134.802 247.953 134.155 247.32 133.688 246.52C133.222 245.707 132.988 244.78 132.988 243.74C132.988 242.7 133.208 241.78 133.648 240.98C134.102 240.18 134.715 239.553 135.488 239.1C136.275 238.633 137.155 238.4 138.128 238.4C139.115 238.4 139.988 238.627 140.748 239.08C141.522 239.52 142.128 240.147 142.568 240.96C143.008 241.76 143.228 242.687 143.228 243.74C143.228 243.807 143.222 243.88 143.208 243.96C143.208 244.027 143.208 244.1 143.208 244.18H134.068V243.12H142.448L141.888 243.54C141.888 242.78 141.722 242.107 141.388 241.52C141.068 240.92 140.628 240.453 140.068 240.12C139.508 239.787 138.862 239.62 138.128 239.62C137.408 239.62 136.762 239.787 136.188 240.12C135.615 240.453 135.168 240.92 134.848 241.52C134.528 242.12 134.368 242.807 134.368 243.58V243.8C134.368 244.6 134.542 245.307 134.888 245.92C135.248 246.52 135.742 246.993 136.368 247.34C137.008 247.673 137.735 247.84 138.548 247.84C139.188 247.84 139.782 247.727 140.328 247.5C140.888 247.273 141.368 246.927 141.768 246.46L142.568 247.38C142.102 247.94 141.515 248.367 140.808 248.66C140.115 248.953 139.348 249.1 138.508 249.1ZM159.239 238.4C160.092 238.4 160.832 238.567 161.459 238.9C162.099 239.22 162.592 239.713 162.939 240.38C163.299 241.047 163.479 241.887 163.479 242.9V249H162.059V243.04C162.059 241.933 161.792 241.1 161.259 240.54C160.739 239.967 159.999 239.68 159.039 239.68C158.319 239.68 157.692 239.833 157.159 240.14C156.639 240.433 156.232 240.867 155.939 241.44C155.659 242 155.519 242.68 155.519 243.48V249H154.099V243.04C154.099 241.933 153.832 241.1 153.299 240.54C152.765 239.967 152.019 239.68 151.059 239.68C150.352 239.68 149.732 239.833 149.199 240.14C148.665 240.433 148.252 240.867 147.959 241.44C147.679 242 147.539 242.68 147.539 243.48V249H146.119V238.5H147.479V241.34L147.259 240.84C147.579 240.08 148.092 239.487 148.799 239.06C149.519 238.62 150.365 238.4 151.339 238.4C152.365 238.4 153.239 238.66 153.959 239.18C154.679 239.687 155.145 240.453 155.359 241.48L154.799 241.26C155.105 240.407 155.645 239.72 156.419 239.2C157.205 238.667 158.145 238.4 159.239 238.4Z" fill="#222222"/>
</g>
<defs>
<filter id="filter0_d_555_556" x="0.333984" y="0" width="208" height="282" filterUnits="userSpaceOnUse" color-interpolation-filters="sRGB">
<feFlood flood-opacity="0" result="BackgroundImageFix"/>
<feColorMatrix in="SourceAlpha" type="matrix" values="0 0 0 0 0 0 0 0 0 0 0 0 0 0 0 0 0 0 127 0" result="hardAlpha"/>
<feOffset dy="4"/>
<feGaussianBlur stdDeviation="2"/>
<feComposite in2="hardAlpha" operator="out"/>
<feColorMatrix type="matrix" values="0 0 0 0 0 0 0 0 0 0 0 0 0 0 0 0 0 0 0.25 0"/>
<feBlend mode="normal" in2="BackgroundImageFix" result="effect1_dropShadow_555_556"/>
<feBlend mode="normal" in="SourceGraphic" in2="effect1_dropShadow_555_556" result="shape"/>
</filter>
</defs>
</svg>
