<svg width="261" height="262" viewBox="0 0 261 262" fill="none" xmlns="http://www.w3.org/2000/svg">
<g clip-path="url(#clip0_517_233)">
<path d="M130.298 0.925781C147.552 0.925781 164.099 7.7799 176.3 19.9803C188.5 32.1807 195.354 48.728 195.354 65.982C195.354 83.236 188.5 99.7833 176.3 111.984C164.099 124.184 147.552 131.038 130.298 131.038C113.044 131.038 96.4967 124.184 84.2963 111.984C72.0959 99.7833 65.2418 83.236 65.2418 65.982C65.2418 48.728 72.0959 32.1807 84.2963 19.9803C96.4967 7.7799 113.044 0.925781 130.298 0.925781ZM130.298 163.566C202.185 163.566 260.41 192.679 260.41 228.623V261.151H0.185547V228.623C0.185547 192.679 58.4109 163.566 130.298 163.566Z" fill="#28C28B"/>
</g>
<defs>
<clipPath id="clip0_517_233">
<rect width="260" height="260.89" fill="white" transform="translate(0.5 0.664062)"/>
</clipPath>
</defs>
</svg>
