<svg width="496" height="407" viewBox="0 0 496 407" fill="none" xmlns="http://www.w3.org/2000/svg">
<path d="M396.821 111.836L382.565 87.0489L408.332 67.3639C409.153 66.8116 409.821 66.06 410.273 65.1793C410.725 64.2987 410.946 63.3178 410.915 62.3285C410.885 61.3392 410.604 60.3738 410.099 59.5226C409.594 58.6714 408.881 57.9623 408.027 57.4615C406.889 56.8012 405.563 56.543 404.261 56.7285L403.732 56.8274L345.135 70.8203C344.253 71.0324 343.433 71.4467 342.739 72.0307C342.045 72.6146 341.496 73.352 341.136 74.1846C340.776 75.0172 340.615 75.9221 340.666 76.8277C340.716 77.7333 340.976 78.6148 341.426 79.4024L355.681 104.202L329.617 124.112C328.548 124.922 327.792 126.074 327.474 127.376C327.157 128.678 327.297 130.05 327.873 131.26C328.448 132.47 329.423 133.445 330.634 134.021C331.844 134.596 333.216 134.737 334.517 134.419L393.12 120.416C394.001 120.203 394.82 119.788 395.513 119.203C396.206 118.619 396.754 117.882 397.113 117.05C397.472 116.218 397.632 115.313 397.581 114.408C397.531 113.504 397.271 112.623 396.821 111.836Z" fill="#28C28B"/>
<path d="M373.829 356.666L392.246 334.792L419.556 352.272C420.356 352.855 421.291 353.225 422.273 353.349C423.255 353.472 424.252 353.344 425.171 352.977C426.091 352.61 426.902 352.016 427.529 351.25C428.156 350.485 428.578 349.572 428.757 348.599C428.988 347.304 428.777 345.969 428.158 344.809L427.884 344.346L394.694 294.068C394.193 293.312 393.523 292.683 392.737 292.231C391.95 291.778 391.07 291.515 390.164 291.461C389.259 291.408 388.354 291.566 387.52 291.923C386.686 292.28 385.947 292.827 385.361 293.519L366.932 315.396L339.308 297.713C338.182 296.986 336.84 296.669 335.508 296.816C334.176 296.963 332.935 297.564 331.995 298.519C331.054 299.474 330.472 300.723 330.345 302.057C330.218 303.392 330.555 304.728 331.299 305.843L364.501 356.122C365.003 356.877 365.673 357.505 366.459 357.956C367.245 358.408 368.125 358.67 369.029 358.723C369.934 358.775 370.839 358.617 371.672 358.26C372.505 357.903 373.243 357.357 373.829 356.666Z" fill="#28C28B"/>
<path d="M425.693 179.905L411.354 204.644L381.423 192.172C380.534 191.737 379.55 191.535 378.561 191.584C377.572 191.633 376.612 191.932 375.771 192.453C374.929 192.974 374.234 193.7 373.749 194.563C373.264 195.426 373.007 196.398 373 197.387C372.997 198.703 373.437 199.981 374.248 201.016L374.598 201.424L416.015 245.174C416.64 245.832 417.409 246.335 418.261 246.644C419.114 246.953 420.027 247.06 420.928 246.955C421.829 246.85 422.693 246.537 423.452 246.041C424.211 245.545 424.845 244.878 425.302 244.095L439.652 219.35L469.927 231.967C471.162 232.488 472.538 232.567 473.824 232.191C475.111 231.815 476.228 231.007 476.989 229.904C477.749 228.8 478.106 227.468 477.999 226.133C477.892 224.797 477.328 223.539 476.402 222.57L434.973 178.82C434.348 178.164 433.579 177.662 432.727 177.354C431.875 177.046 430.962 176.94 430.062 177.046C429.162 177.151 428.299 177.464 427.54 177.96C426.782 178.456 426.149 179.122 425.693 179.905Z" fill="#F7F7F7" stroke="#28C28B" stroke-width="10"/>
<g clip-path="url(#clip0_517_319)">
<path d="M267.688 106.375C264.464 104.29 260.778 103.028 256.953 102.701C253.127 102.374 249.281 102.992 245.75 104.5L130.062 150.063C127.324 151.177 124.395 151.75 121.438 151.75H47.375C41.159 151.75 35.1976 154.22 30.8022 158.615C26.4068 163.01 23.9375 168.972 23.9375 175.188V177.063H0.5V233.313H23.9375V235.75C24.0844 241.868 26.6184 247.686 30.9979 251.961C35.3775 256.235 41.2552 258.627 47.375 258.625L75.5 318.25C77.4044 322.265 80.4027 325.662 84.1505 328.05C87.8983 330.438 92.2437 331.72 96.6875 331.75H108.5C114.683 331.701 120.597 329.21 124.952 324.82C129.307 320.43 131.75 314.496 131.75 308.313V260.875L245.75 306.438C248.554 307.554 251.545 308.126 254.562 308.125C259.245 308.05 263.804 306.617 267.688 304C270.771 301.918 273.315 299.131 275.109 295.871C276.902 292.61 277.893 288.97 278 285.25V125.688C277.983 121.872 277.034 118.119 275.237 114.753C273.44 111.388 270.849 108.512 267.688 106.375ZM108.312 175.188V235.75H47.375V175.188H108.312ZM108.312 308.313H96.5L73.4375 258.625H108.312V308.313ZM138.688 238.563C136.461 237.425 134.14 236.484 131.75 235.75V173.875C134.117 173.387 136.438 172.697 138.688 171.813L254.562 125.688V284.688L138.688 238.563ZM278.562 181.75V228.625C284.779 228.625 290.74 226.156 295.135 221.761C299.531 217.365 302 211.404 302 205.188C302 198.972 299.531 193.01 295.135 188.615C290.74 184.22 284.779 181.75 278.562 181.75Z" fill="#28C28B"/>
</g>
<defs>
<clipPath id="clip0_517_319">
<rect width="300" height="300" fill="white" transform="translate(0.5 67)"/>
</clipPath>
</defs>
</svg>
