<svg width="301" height="300" viewBox="0 0 301 300" fill="none" xmlns="http://www.w3.org/2000/svg">
<g clip-path="url(#clip0_517_311)">
<path d="M267.688 39.3752C264.464 37.2899 260.778 36.0283 256.953 35.7014C253.127 35.3744 249.281 35.9921 245.75 37.5002L130.062 83.0627C127.324 84.1774 124.395 84.7505 121.438 84.7502H47.375C41.159 84.7502 35.1976 87.2195 30.8022 91.6149C26.4068 96.0103 23.9375 101.972 23.9375 108.188V110.063H0.5V166.313H23.9375V168.75C24.0844 174.868 26.6184 180.686 30.9979 184.961C35.3775 189.235 41.2552 191.627 47.375 191.625L75.5 251.25C77.4044 255.265 80.4027 258.662 84.1505 261.05C87.8983 263.438 92.2437 264.72 96.6875 264.75H108.5C114.683 264.701 120.597 262.21 124.952 257.82C129.307 253.43 131.75 247.496 131.75 241.313V193.875L245.75 239.438C248.554 240.554 251.545 241.126 254.562 241.125C259.245 241.05 263.804 239.617 267.688 237C270.771 234.918 273.315 232.131 275.109 228.871C276.902 225.61 277.893 221.97 278 218.25V58.6877C277.983 54.8724 277.034 51.1189 275.237 47.7534C273.44 44.3878 270.849 41.5118 267.688 39.3752ZM108.312 108.188V168.75H47.375V108.188H108.312ZM108.312 241.313H96.5L73.4375 191.625H108.312V241.313ZM138.688 171.563C136.461 170.425 134.14 169.484 131.75 168.75V106.875C134.117 106.387 136.438 105.697 138.688 104.813L254.562 58.6877V217.688L138.688 171.563ZM278.562 114.75V161.625C284.779 161.625 290.74 159.156 295.135 154.761C299.531 150.365 302 144.404 302 138.188C302 131.972 299.531 126.01 295.135 121.615C290.74 117.22 284.779 114.75 278.562 114.75Z" fill="#28C28B"/>
</g>
<defs>
<clipPath id="clip0_517_311">
<rect width="300" height="300" fill="white" transform="translate(0.5)"/>
</clipPath>
</defs>
</svg>
