<svg width="260" height="261" viewBox="0 0 260 261" fill="none" xmlns="http://www.w3.org/2000/svg">
<g clip-path="url(#clip0_529_736)">
<path d="M0 130.5C0 96.0219 13.6964 62.9558 38.0761 38.5761C62.4558 14.1964 95.5219 0.5 130 0.5C164.478 0.5 197.544 14.1964 221.924 38.5761C246.304 62.9558 260 96.0219 260 130.5C260 164.978 246.304 198.044 221.924 222.424C197.544 246.804 164.478 260.5 130 260.5C95.5219 260.5 62.4558 246.804 38.0761 222.424C13.6964 198.044 0 164.978 0 130.5ZM130 24.875C101.987 24.875 75.1204 36.0033 55.3118 55.8118C35.5033 75.6204 24.375 102.487 24.375 130.5C24.375 158.513 35.5033 185.38 55.3118 205.188C75.1204 224.997 101.987 236.125 130 236.125C158.013 236.125 184.88 224.997 204.688 205.188C224.497 185.38 235.625 158.513 235.625 130.5C235.625 102.487 224.497 75.6204 204.688 55.8118C184.88 36.0033 158.013 24.875 130 24.875ZM112.45 99.3812C111.006 102.273 108.489 104.473 105.423 105.497C102.358 106.521 99.0106 106.285 96.1188 104.841C93.2269 103.397 91.027 100.864 90.0031 97.7983C88.9791 94.7326 89.215 91.3856 90.6588 88.4938C93.405 82.985 97.7438 77.1025 104.455 72.6175C111.231 68.1 119.746 65.5 130 65.5C139.549 65.4393 148.869 68.4281 156.601 74.0312C164.775 80.1575 170.625 89.7125 170.625 102.062C170.625 109.342 168.756 115.55 165.279 120.75C161.947 125.739 157.641 129.086 154.034 131.508C152.262 132.678 150.459 133.75 148.948 134.676L148.85 134.741C147.42 135.572 146.011 136.439 144.625 137.341C142.896 138.379 141.375 139.729 140.14 141.323C138.331 143.973 135.549 145.803 132.399 146.415C129.249 147.027 125.984 146.372 123.314 144.592C120.644 142.812 118.783 140.05 118.137 136.907C117.49 133.764 118.109 130.492 119.86 127.803C122.85 123.513 126.685 119.856 131.105 117.061C132.773 115.978 134.469 114.922 136.191 113.893L136.305 113.827C137.93 112.836 139.262 112.04 140.497 111.211C142.232 110.176 143.759 108.825 144.999 107.23C145.6 106.353 146.25 104.939 146.25 102.062C146.315 100.397 145.959 98.7425 145.214 97.2514C144.47 95.7602 143.362 94.4807 141.992 93.5312C138.471 91.0984 134.28 89.8206 130 89.875C124.004 89.875 120.331 91.3375 117.975 92.9137C115.592 94.5408 113.685 96.7731 112.45 99.3812ZM146.25 179.25C146.25 183.56 144.538 187.693 141.49 190.74C138.443 193.788 134.31 195.5 130 195.5C125.69 195.5 121.557 193.788 118.51 190.74C115.462 187.693 113.75 183.56 113.75 179.25C113.75 174.94 115.462 170.807 118.51 167.76C121.557 164.712 125.69 163 130 163C134.31 163 138.443 164.712 141.49 167.76C144.538 170.807 146.25 174.94 146.25 179.25Z" fill="#28C28B"/>
</g>
<defs>
<clipPath id="clip0_529_736">
<rect width="260" height="260" fill="white" transform="translate(0 0.5)"/>
</clipPath>
</defs>
</svg>
