<svg width="208" height="282" viewBox="0 0 208 282" fill="none" xmlns="http://www.w3.org/2000/svg">
<g filter="url(#filter0_d_555_558)">
<rect x="4" width="200" height="274" rx="12" fill="white" shape-rendering="crispEdges"/>
<path d="M72.7667 173.825C66.1833 184.7 63.225 195 51.5 195C39.075 195 29 184.642 29 171.858C29 159.075 39.075 148.708 51.5 148.708C63.1667 148.708 72.75 157.833 73.8833 169.525C73.9824 171.038 73.5908 172.552 72.7667 173.825ZM72.7667 173.825L89 144.85L72.7667 173.825ZM135.233 173.817C141.817 184.7 144.775 195 156.5 195C168.925 195 179 184.642 179 171.858C179 159.075 168.925 148.708 156.5 148.708C144.833 148.708 135.25 157.833 134.108 169.525C133.967 171.042 134.442 172.525 135.233 173.817ZM135.233 173.817L63.1083 47.8832C62.6664 47.0852 62.0326 46.4099 61.2643 45.9182C60.496 45.4266 59.6172 45.134 58.7075 45.067C57.7978 45 56.8857 45.1607 56.0536 45.5345C55.2216 45.9084 54.4957 46.4836 53.9417 47.2082C39.7417 65.4582 41.1583 91.7916 57.2333 108.317L135.233 173.817ZM103.592 118.567L144.867 47.7832C145.315 46.993 145.951 46.326 146.72 45.8418C147.489 45.3577 148.365 45.0715 149.272 45.0087C150.178 44.946 151.085 45.1087 151.913 45.4824C152.741 45.856 153.464 46.4289 154.017 47.1499C168.242 65.4332 166.825 91.7999 150.725 108.358L141.5 117.85" fill="#28C28B"/>
<path d="M72.7667 173.825C66.1833 184.7 63.225 195 51.5 195C39.075 195 29 184.642 29 171.858C29 159.075 39.075 148.708 51.5 148.708C63.1667 148.708 72.75 157.833 73.8833 169.525C73.9824 171.038 73.5908 172.552 72.7667 173.825ZM72.7667 173.825L89 144.85M135.233 173.817C141.817 184.7 144.775 195 156.5 195C168.925 195 179 184.642 179 171.858C179 159.075 168.925 148.708 156.5 148.708C144.833 148.708 135.25 157.833 134.108 169.525C133.967 171.042 134.442 172.525 135.233 173.817ZM135.233 173.817L63.1083 47.8832C62.6664 47.0852 62.0326 46.4099 61.2643 45.9182C60.496 45.4266 59.6172 45.134 58.7075 45.067C57.7978 45 56.8857 45.1607 56.0536 45.5345C55.2216 45.9084 54.4957 46.4836 53.9417 47.2082C39.7417 65.4582 41.1583 91.7916 57.2333 108.317L135.233 173.817ZM103.592 118.567L144.867 47.7832C145.315 46.993 145.951 46.326 146.72 45.8418C147.489 45.3577 148.365 45.0715 149.272 45.0087C150.178 44.946 151.085 45.1087 151.913 45.4824C152.741 45.856 153.464 46.4289 154.017 47.1499C168.242 65.4332 166.825 91.7999 150.725 108.358L141.5 117.85" stroke="white" stroke-width="2" stroke-linecap="round" stroke-linejoin="round"/>
<path d="M32.6986 249.12C31.6586 249.12 30.6586 248.953 29.6986 248.62C28.7519 248.273 28.0186 247.833 27.4986 247.3L28.0786 246.16C28.5719 246.64 29.2319 247.047 30.0586 247.38C30.8986 247.7 31.7786 247.86 32.6986 247.86C33.5786 247.86 34.2919 247.753 34.8386 247.54C35.3986 247.313 35.8053 247.013 36.0586 246.64C36.3253 246.267 36.4586 245.853 36.4586 245.4C36.4586 244.853 36.2986 244.413 35.9786 244.08C35.6719 243.747 35.2653 243.487 34.7586 243.3C34.2519 243.1 33.6919 242.927 33.0786 242.78C32.4653 242.633 31.8519 242.48 31.2386 242.32C30.6253 242.147 30.0586 241.92 29.5386 241.64C29.0319 241.36 28.6186 240.993 28.2986 240.54C27.9919 240.073 27.8386 239.467 27.8386 238.72C27.8386 238.027 28.0186 237.393 28.3786 236.82C28.7519 236.233 29.3186 235.767 30.0786 235.42C30.8386 235.06 31.8119 234.88 32.9986 234.88C33.7853 234.88 34.5653 234.993 35.3386 235.22C36.1119 235.433 36.7786 235.733 37.3386 236.12L36.8386 237.3C36.2386 236.9 35.5986 236.607 34.9186 236.42C34.2519 236.233 33.6053 236.14 32.9786 236.14C32.1386 236.14 31.4453 236.253 30.8986 236.48C30.3519 236.707 29.9453 237.013 29.6786 237.4C29.4253 237.773 29.2986 238.2 29.2986 238.68C29.2986 239.227 29.4519 239.667 29.7586 240C30.0786 240.333 30.4919 240.593 30.9986 240.78C31.5186 240.967 32.0853 241.133 32.6986 241.28C33.3119 241.427 33.9186 241.587 34.5186 241.76C35.1319 241.933 35.6919 242.16 36.1986 242.44C36.7186 242.707 37.1319 243.067 37.4386 243.52C37.7586 243.973 37.9186 244.567 37.9186 245.3C37.9186 245.98 37.7319 246.613 37.3586 247.2C36.9853 247.773 36.4119 248.24 35.6386 248.6C34.8786 248.947 33.8986 249.12 32.6986 249.12ZM47.4233 249V246.68L47.3633 246.3V242.42C47.3633 241.527 47.1099 240.84 46.6033 240.36C46.1099 239.88 45.3699 239.64 44.3833 239.64C43.7033 239.64 43.0566 239.753 42.4433 239.98C41.8299 240.207 41.3099 240.507 40.8833 240.88L40.2433 239.82C40.7766 239.367 41.4166 239.02 42.1633 238.78C42.9099 238.527 43.6966 238.4 44.5233 238.4C45.8833 238.4 46.9299 238.74 47.6633 239.42C48.4099 240.087 48.7833 241.107 48.7833 242.48V249H47.4233ZM43.8033 249.1C43.0166 249.1 42.3299 248.973 41.7433 248.72C41.1699 248.453 40.7299 248.093 40.4233 247.64C40.1166 247.173 39.9633 246.64 39.9633 246.04C39.9633 245.493 40.0899 245 40.3433 244.56C40.6099 244.107 41.0366 243.747 41.6233 243.48C42.2233 243.2 43.0233 243.06 44.0233 243.06H47.6433V244.12H44.0633C43.0499 244.12 42.3433 244.3 41.9433 244.66C41.5566 245.02 41.3633 245.467 41.3633 246C41.3633 246.6 41.5966 247.08 42.0633 247.44C42.5299 247.8 43.1833 247.98 44.0233 247.98C44.8233 247.98 45.5099 247.8 46.0833 247.44C46.6699 247.067 47.0966 246.533 47.3633 245.84L47.6833 246.82C47.4166 247.513 46.9499 248.067 46.2833 248.48C45.6299 248.893 44.8033 249.1 43.8033 249.1ZM52.6402 249V234.16H54.0602V249H52.6402ZM64.5913 249V246.68L64.5313 246.3V242.42C64.5313 241.527 64.2779 240.84 63.7713 240.36C63.2779 239.88 62.5379 239.64 61.5513 239.64C60.8713 239.64 60.2246 239.753 59.6113 239.98C58.9979 240.207 58.4779 240.507 58.0513 240.88L57.4113 239.82C57.9446 239.367 58.5846 239.02 59.3313 238.78C60.0779 238.527 60.8646 238.4 61.6913 238.4C63.0513 238.4 64.0979 238.74 64.8313 239.42C65.5779 240.087 65.9513 241.107 65.9513 242.48V249H64.5913ZM60.9713 249.1C60.1846 249.1 59.4979 248.973 58.9113 248.72C58.3379 248.453 57.8979 248.093 57.5913 247.64C57.2846 247.173 57.1313 246.64 57.1313 246.04C57.1313 245.493 57.2579 245 57.5113 244.56C57.7779 244.107 58.2046 243.747 58.7913 243.48C59.3913 243.2 60.1913 243.06 61.1913 243.06H64.8113V244.12H61.2313C60.2179 244.12 59.5113 244.3 59.1113 244.66C58.7246 245.02 58.5312 245.467 58.5312 246C58.5312 246.6 58.7646 247.08 59.2313 247.44C59.6979 247.8 60.3513 247.98 61.1913 247.98C61.9913 247.98 62.6779 247.8 63.2513 247.44C63.8379 247.067 64.2646 246.533 64.5313 245.84L64.8513 246.82C64.5846 247.513 64.1179 248.067 63.4513 248.48C62.7979 248.893 61.9713 249.1 60.9713 249.1ZM63.0913 236.74C62.7846 236.74 62.5113 236.673 62.2713 236.54C62.0313 236.407 61.8113 236.253 61.6113 236.08C61.4246 235.893 61.2379 235.733 61.0513 235.6C60.8646 235.453 60.6713 235.38 60.4713 235.38C60.1646 235.38 59.9179 235.493 59.7313 235.72C59.5579 235.947 59.4579 236.26 59.4313 236.66H58.5713C58.5979 235.993 58.7713 235.46 59.0913 235.06C59.4246 234.66 59.8513 234.46 60.3713 234.46C60.6779 234.46 60.9513 234.533 61.1913 234.68C61.4446 234.813 61.6646 234.973 61.8513 235.16C62.0513 235.333 62.2379 235.487 62.4113 235.62C62.5979 235.753 62.7913 235.82 62.9913 235.82C63.2979 235.82 63.5446 235.713 63.7313 235.5C63.9179 235.273 64.0179 234.967 64.0313 234.58H64.8913C64.8779 235.22 64.7046 235.74 64.3713 236.14C64.0379 236.54 63.6113 236.74 63.0913 236.74ZM74.0881 249.1C73.0748 249.1 72.1615 248.873 71.3481 248.42C70.5481 247.953 69.9148 247.32 69.4481 246.52C68.9815 245.707 68.7481 244.78 68.7481 243.74C68.7481 242.687 68.9815 241.76 69.4481 240.96C69.9148 240.16 70.5481 239.533 71.3481 239.08C72.1481 238.627 73.0615 238.4 74.0881 238.4C75.1281 238.4 76.0481 238.627 76.8481 239.08C77.6615 239.533 78.2948 240.16 78.7481 240.96C79.2148 241.76 79.4481 242.687 79.4481 243.74C79.4481 244.78 79.2148 245.707 78.7481 246.52C78.2948 247.32 77.6615 247.953 76.8481 248.42C76.0348 248.873 75.1148 249.1 74.0881 249.1ZM74.0881 247.84C74.8481 247.84 75.5215 247.673 76.1081 247.34C76.6948 246.993 77.1548 246.513 77.4881 245.9C77.8348 245.273 78.0081 244.553 78.0081 243.74C78.0081 242.913 77.8348 242.193 77.4881 241.58C77.1548 240.967 76.6948 240.493 76.1081 240.16C75.5215 239.813 74.8548 239.64 74.1081 239.64C73.3615 239.64 72.6948 239.813 72.1081 240.16C71.5215 240.493 71.0548 240.967 70.7081 241.58C70.3615 242.193 70.1881 242.913 70.1881 243.74C70.1881 244.553 70.3615 245.273 70.7081 245.9C71.0548 246.513 71.5215 246.993 72.1081 247.34C72.6948 247.673 73.3548 247.84 74.0881 247.84ZM91.7616 249.1C90.7616 249.1 89.8616 248.873 89.0616 248.42C88.2749 247.967 87.6549 247.34 87.2016 246.54C86.7482 245.727 86.5216 244.793 86.5216 243.74C86.5216 242.673 86.7482 241.74 87.2016 240.94C87.6549 240.14 88.2749 239.52 89.0616 239.08C89.8616 238.627 90.7616 238.4 91.7616 238.4C92.6816 238.4 93.5016 238.607 94.2216 239.02C94.9549 239.433 95.5349 240.04 95.9616 240.84C96.4016 241.627 96.6216 242.593 96.6216 243.74C96.6216 244.873 96.4082 245.84 95.9816 246.64C95.5549 247.44 94.9749 248.053 94.2416 248.48C93.5216 248.893 92.6949 249.1 91.7616 249.1ZM91.8616 247.84C92.6082 247.84 93.2749 247.673 93.8616 247.34C94.4616 246.993 94.9282 246.513 95.2616 245.9C95.6082 245.273 95.7816 244.553 95.7816 243.74C95.7816 242.913 95.6082 242.193 95.2616 241.58C94.9282 240.967 94.4616 240.493 93.8616 240.16C93.2749 239.813 92.6082 239.64 91.8616 239.64C91.1282 239.64 90.4682 239.813 89.8816 240.16C89.2949 240.493 88.8282 240.967 88.4816 241.58C88.1349 242.193 87.9616 242.913 87.9616 243.74C87.9616 244.553 88.1349 245.273 88.4816 245.9C88.8282 246.513 89.2949 246.993 89.8816 247.34C90.4682 247.673 91.1282 247.84 91.8616 247.84ZM95.8216 249V245.84L95.9616 243.72L95.7616 241.6V234.16H97.1816V249H95.8216ZM105.596 249.1C104.503 249.1 103.543 248.873 102.716 248.42C101.89 247.953 101.243 247.32 100.776 246.52C100.31 245.707 100.076 244.78 100.076 243.74C100.076 242.7 100.296 241.78 100.736 240.98C101.19 240.18 101.803 239.553 102.576 239.1C103.363 238.633 104.243 238.4 105.216 238.4C106.203 238.4 107.076 238.627 107.836 239.08C108.61 239.52 109.216 240.147 109.656 240.96C110.096 241.76 110.316 242.687 110.316 243.74C110.316 243.807 110.31 243.88 110.296 243.96C110.296 244.027 110.296 244.1 110.296 244.18H101.156V243.12H109.536L108.976 243.54C108.976 242.78 108.81 242.107 108.476 241.52C108.156 240.92 107.716 240.453 107.156 240.12C106.596 239.787 105.95 239.62 105.216 239.62C104.496 239.62 103.85 239.787 103.276 240.12C102.703 240.453 102.256 240.92 101.936 241.52C101.616 242.12 101.456 242.807 101.456 243.58V243.8C101.456 244.6 101.63 245.307 101.976 245.92C102.336 246.52 102.83 246.993 103.456 247.34C104.096 247.673 104.823 247.84 105.636 247.84C106.276 247.84 106.87 247.727 107.416 247.5C107.976 247.273 108.456 246.927 108.856 246.46L109.656 247.38C109.19 247.94 108.603 248.367 107.896 248.66C107.203 248.953 106.436 249.1 105.596 249.1ZM123.861 249.1C122.941 249.1 122.114 248.893 121.381 248.48C120.648 248.053 120.068 247.44 119.641 246.64C119.214 245.84 119.001 244.873 119.001 243.74C119.001 242.593 119.214 241.627 119.641 240.84C120.081 240.04 120.668 239.433 121.401 239.02C122.134 238.607 122.954 238.4 123.861 238.4C124.861 238.4 125.754 238.627 126.541 239.08C127.341 239.52 127.968 240.14 128.421 240.94C128.874 241.74 129.101 242.673 129.101 243.74C129.101 244.793 128.874 245.727 128.421 246.54C127.968 247.34 127.341 247.967 126.541 248.42C125.754 248.873 124.861 249.1 123.861 249.1ZM118.441 249V234.16H119.861V241.6L119.661 243.72L119.801 245.84V249H118.441ZM123.761 247.84C124.508 247.84 125.174 247.673 125.761 247.34C126.348 246.993 126.814 246.513 127.161 245.9C127.508 245.273 127.681 244.553 127.681 243.74C127.681 242.913 127.508 242.193 127.161 241.58C126.814 240.967 126.348 240.493 125.761 240.16C125.174 239.813 124.508 239.64 123.761 239.64C123.014 239.64 122.341 239.813 121.741 240.16C121.154 240.493 120.688 240.967 120.341 241.58C120.008 242.193 119.841 242.913 119.841 243.74C119.841 244.553 120.008 245.273 120.341 245.9C120.688 246.513 121.154 246.993 121.741 247.34C122.341 247.673 123.014 247.84 123.761 247.84ZM136.456 249.1C135.362 249.1 134.402 248.873 133.576 248.42C132.749 247.953 132.102 247.32 131.636 246.52C131.169 245.707 130.936 244.78 130.936 243.74C130.936 242.7 131.156 241.78 131.596 240.98C132.049 240.18 132.662 239.553 133.436 239.1C134.222 238.633 135.102 238.4 136.076 238.4C137.062 238.4 137.936 238.627 138.696 239.08C139.469 239.52 140.076 240.147 140.516 240.96C140.956 241.76 141.176 242.687 141.176 243.74C141.176 243.807 141.169 243.88 141.156 243.96C141.156 244.027 141.156 244.1 141.156 244.18H132.016V243.12H140.396L139.836 243.54C139.836 242.78 139.669 242.107 139.336 241.52C139.016 240.92 138.576 240.453 138.016 240.12C137.456 239.787 136.809 239.62 136.076 239.62C135.356 239.62 134.709 239.787 134.136 240.12C133.562 240.453 133.116 240.92 132.796 241.52C132.476 242.12 132.316 242.807 132.316 243.58V243.8C132.316 244.6 132.489 245.307 132.836 245.92C133.196 246.52 133.689 246.993 134.316 247.34C134.956 247.673 135.682 247.84 136.496 247.84C137.136 247.84 137.729 247.727 138.276 247.5C138.836 247.273 139.316 246.927 139.716 246.46L140.516 247.38C140.049 247.94 139.462 248.367 138.756 248.66C138.062 248.953 137.296 249.1 136.456 249.1ZM144.066 249V234.16H145.486V249H144.066ZM153.897 249.1C152.804 249.1 151.844 248.873 151.017 248.42C150.19 247.953 149.544 247.32 149.077 246.52C148.61 245.707 148.377 244.78 148.377 243.74C148.377 242.7 148.597 241.78 149.037 240.98C149.49 240.18 150.104 239.553 150.877 239.1C151.664 238.633 152.544 238.4 153.517 238.4C154.504 238.4 155.377 238.627 156.137 239.08C156.91 239.52 157.517 240.147 157.957 240.96C158.397 241.76 158.617 242.687 158.617 243.74C158.617 243.807 158.61 243.88 158.597 243.96C158.597 244.027 158.597 244.1 158.597 244.18H149.457V243.12H157.837L157.277 243.54C157.277 242.78 157.11 242.107 156.777 241.52C156.457 240.92 156.017 240.453 155.457 240.12C154.897 239.787 154.25 239.62 153.517 239.62C152.797 239.62 152.15 239.787 151.577 240.12C151.004 240.453 150.557 240.92 150.237 241.52C149.917 242.12 149.757 242.807 149.757 243.58V243.8C149.757 244.6 149.93 245.307 150.277 245.92C150.637 246.52 151.13 246.993 151.757 247.34C152.397 247.673 153.124 247.84 153.937 247.84C154.577 247.84 155.17 247.727 155.717 247.5C156.277 247.273 156.757 246.927 157.157 246.46L157.957 247.38C157.49 247.94 156.904 248.367 156.197 248.66C155.504 248.953 154.737 249.1 153.897 249.1ZM160.27 249V248.06L167.27 239.2L167.57 239.68H160.39V238.5H168.69V239.42L161.71 248.3L161.35 247.82H168.83V249H160.27ZM178.205 249V246.68L178.145 246.3V242.42C178.145 241.527 177.891 240.84 177.385 240.36C176.891 239.88 176.151 239.64 175.165 239.64C174.485 239.64 173.838 239.753 173.225 239.98C172.611 240.207 172.091 240.507 171.665 240.88L171.025 239.82C171.558 239.367 172.198 239.02 172.945 238.78C173.691 238.527 174.478 238.4 175.305 238.4C176.665 238.4 177.711 238.74 178.445 239.42C179.191 240.087 179.565 241.107 179.565 242.48V249H178.205ZM174.585 249.1C173.798 249.1 173.111 248.973 172.525 248.72C171.951 248.453 171.511 248.093 171.205 247.64C170.898 247.173 170.745 246.64 170.745 246.04C170.745 245.493 170.871 245 171.125 244.56C171.391 244.107 171.818 243.747 172.405 243.48C173.005 243.2 173.805 243.06 174.805 243.06H178.425V244.12H174.845C173.831 244.12 173.125 244.3 172.725 244.66C172.338 245.02 172.145 245.467 172.145 246C172.145 246.6 172.378 247.08 172.845 247.44C173.311 247.8 173.965 247.98 174.805 247.98C175.605 247.98 176.291 247.8 176.865 247.44C177.451 247.067 177.878 246.533 178.145 245.84L178.465 246.82C178.198 247.513 177.731 248.067 177.065 248.48C176.411 248.893 175.585 249.1 174.585 249.1Z" fill="#222222"/>
</g>
<defs>
<filter id="filter0_d_555_558" x="0" y="0" width="208" height="282" filterUnits="userSpaceOnUse" color-interpolation-filters="sRGB">
<feFlood flood-opacity="0" result="BackgroundImageFix"/>
<feColorMatrix in="SourceAlpha" type="matrix" values="0 0 0 0 0 0 0 0 0 0 0 0 0 0 0 0 0 0 127 0" result="hardAlpha"/>
<feOffset dy="4"/>
<feGaussianBlur stdDeviation="2"/>
<feComposite in2="hardAlpha" operator="out"/>
<feColorMatrix type="matrix" values="0 0 0 0 0 0 0 0 0 0 0 0 0 0 0 0 0 0 0.25 0"/>
<feBlend mode="normal" in2="BackgroundImageFix" result="effect1_dropShadow_555_558"/>
<feBlend mode="normal" in="SourceGraphic" in2="effect1_dropShadow_555_558" result="shape"/>
</filter>
</defs>
</svg>
