<svg width="192" height="192" viewBox="0 0 192 192" fill="none" xmlns="http://www.w3.org/2000/svg">
<path d="M123.821 111.836L109.565 87.0489L135.332 67.3639C136.153 66.8116 136.821 66.06 137.273 65.1793C137.725 64.2987 137.946 63.3178 137.915 62.3285C137.885 61.3392 137.604 60.3738 137.099 59.5226C136.594 58.6714 135.881 57.9623 135.027 57.4615C133.889 56.8012 132.563 56.543 131.261 56.7285L130.732 56.8274L72.135 70.8203C71.2532 71.0324 70.4328 71.4467 69.7387 72.0307C69.0447 72.6146 68.496 73.352 68.1362 74.1846C67.7764 75.0172 67.6153 75.9221 67.6657 76.8277C67.716 77.7333 67.9764 78.6148 68.4263 79.4024L82.6811 104.202L56.6165 124.112C55.5484 124.922 54.7917 126.074 54.4741 127.376C54.1565 128.678 54.2973 130.05 54.8728 131.26C55.4483 132.47 56.4234 133.445 57.6337 134.021C58.844 134.596 60.2156 134.737 61.5175 134.419L120.12 120.416C121.001 120.203 121.82 119.788 122.513 119.203C123.206 118.619 123.754 117.882 124.113 117.05C124.472 116.218 124.632 115.313 124.581 114.408C124.531 113.504 124.271 112.623 123.821 111.836Z" fill="#28C28B"/>
</svg>
