<svg width="208" height="282" viewBox="0 0 208 282" fill="none" xmlns="http://www.w3.org/2000/svg">
<g filter="url(#filter0_d_555_552)">
<rect x="4" y="0.5" width="200" height="273" rx="12" fill="white" shape-rendering="crispEdges"/>
<path d="M162.334 103.833H45.6673C41.0649 103.833 37.334 107.564 37.334 112.167V195.5C37.334 200.103 41.0649 203.833 45.6673 203.833H162.334C166.936 203.833 170.667 200.103 170.667 195.5V112.167C170.667 107.564 166.936 103.833 162.334 103.833Z" fill="#28C28B" stroke="white" stroke-width="4" stroke-linecap="round" stroke-linejoin="round"/>
<path d="M74.834 37.1667H133.167V103.833H74.834V37.1667ZM95.6673 153.833H112.334L116.501 174.667H91.5007L95.6673 153.833ZM104.001 103.833V153.833V103.833ZM133.167 103.833H74.834H133.167Z" fill="#28C28B"/>
<path d="M104.001 103.833V153.833M74.834 37.1667H133.167V103.833H74.834V37.1667ZM95.6673 153.833H112.334L116.501 174.667H91.5007L95.6673 153.833Z" stroke="white" stroke-width="4" stroke-linecap="round" stroke-linejoin="round"/>
<path d="M79.7032 249.62C77.9165 249.62 76.5099 249.107 75.4832 248.08C74.4565 247.053 73.9432 245.533 73.9432 243.52V235.5H75.4232V243.46C75.4232 245.113 75.7965 246.333 76.5432 247.12C77.2899 247.907 78.3432 248.3 79.7032 248.3C81.0765 248.3 82.1365 247.907 82.8832 247.12C83.6299 246.333 84.0032 245.113 84.0032 243.46V235.5H85.4432V243.52C85.4432 245.533 84.9299 247.053 83.9032 248.08C82.8899 249.107 81.4899 249.62 79.7032 249.62ZM94.963 238.9C95.8164 238.9 96.563 239.067 97.203 239.4C97.8564 239.72 98.363 240.213 98.723 240.88C99.0964 241.547 99.283 242.387 99.283 243.4V249.5H97.863V243.54C97.863 242.433 97.583 241.6 97.023 241.04C96.4764 240.467 95.703 240.18 94.703 240.18C93.9564 240.18 93.303 240.333 92.743 240.64C92.1964 240.933 91.7697 241.367 91.463 241.94C91.1697 242.5 91.023 243.18 91.023 243.98V249.5H89.603V239H90.963V241.88L90.743 241.34C91.0764 240.58 91.6097 239.987 92.343 239.56C93.0764 239.12 93.9497 238.9 94.963 238.9ZM108.479 238.9C109.332 238.9 110.079 239.067 110.719 239.4C111.372 239.72 111.879 240.213 112.239 240.88C112.612 241.547 112.799 242.387 112.799 243.4V249.5H111.379V243.54C111.379 242.433 111.099 241.6 110.539 241.04C109.992 240.467 109.219 240.18 108.219 240.18C107.472 240.18 106.819 240.333 106.259 240.64C105.712 240.933 105.285 241.367 104.979 241.94C104.685 242.5 104.539 243.18 104.539 243.98V249.5H103.119V234.66H104.539V241.88L104.259 241.34C104.592 240.58 105.125 239.987 105.859 239.56C106.592 239.12 107.465 238.9 108.479 238.9ZM123.214 249.5V247.18L123.154 246.8V242.92C123.154 242.027 122.901 241.34 122.394 240.86C121.901 240.38 121.161 240.14 120.174 240.14C119.494 240.14 118.848 240.253 118.234 240.48C117.621 240.707 117.101 241.007 116.674 241.38L116.034 240.32C116.568 239.867 117.208 239.52 117.954 239.28C118.701 239.027 119.488 238.9 120.314 238.9C121.674 238.9 122.721 239.24 123.454 239.92C124.201 240.587 124.574 241.607 124.574 242.98V249.5H123.214ZM119.594 249.6C118.808 249.6 118.121 249.473 117.534 249.22C116.961 248.953 116.521 248.593 116.214 248.14C115.908 247.673 115.754 247.14 115.754 246.54C115.754 245.993 115.881 245.5 116.134 245.06C116.401 244.607 116.828 244.247 117.414 243.98C118.014 243.7 118.814 243.56 119.814 243.56H123.434V244.62H119.854C118.841 244.62 118.134 244.8 117.734 245.16C117.348 245.52 117.154 245.967 117.154 246.5C117.154 247.1 117.388 247.58 117.854 247.94C118.321 248.3 118.974 248.48 119.814 248.48C120.614 248.48 121.301 248.3 121.874 247.94C122.461 247.567 122.888 247.033 123.154 246.34L123.474 247.32C123.208 248.013 122.741 248.567 122.074 248.98C121.421 249.393 120.594 249.6 119.594 249.6ZM131.251 249.6C130.385 249.6 129.565 249.48 128.791 249.24C128.018 248.987 127.411 248.673 126.971 248.3L127.611 247.18C128.038 247.5 128.585 247.78 129.251 248.02C129.918 248.247 130.618 248.36 131.351 248.36C132.351 248.36 133.071 248.207 133.511 247.9C133.951 247.58 134.171 247.16 134.171 246.64C134.171 246.253 134.045 245.953 133.791 245.74C133.551 245.513 133.231 245.347 132.831 245.24C132.431 245.12 131.985 245.02 131.491 244.94C130.998 244.86 130.505 244.767 130.011 244.66C129.531 244.553 129.091 244.4 128.691 244.2C128.291 243.987 127.965 243.7 127.711 243.34C127.471 242.98 127.351 242.5 127.351 241.9C127.351 241.327 127.511 240.813 127.831 240.36C128.151 239.907 128.618 239.553 129.231 239.3C129.858 239.033 130.618 238.9 131.511 238.9C132.191 238.9 132.871 238.993 133.551 239.18C134.231 239.353 134.791 239.587 135.231 239.88L134.611 241.02C134.145 240.7 133.645 240.473 133.111 240.34C132.578 240.193 132.045 240.12 131.511 240.12C130.565 240.12 129.865 240.287 129.411 240.62C128.971 240.94 128.751 241.353 128.751 241.86C128.751 242.26 128.871 242.573 129.111 242.8C129.365 243.027 129.691 243.207 130.091 243.34C130.505 243.46 130.951 243.56 131.431 243.64C131.925 243.72 132.411 243.82 132.891 243.94C133.385 244.047 133.831 244.2 134.231 244.4C134.645 244.587 134.971 244.86 135.211 245.22C135.465 245.567 135.591 246.027 135.591 246.6C135.591 247.213 135.418 247.747 135.071 248.2C134.738 248.64 134.245 248.987 133.591 249.24C132.951 249.48 132.171 249.6 131.251 249.6Z" fill="#222222"/>
</g>
<defs>
<filter id="filter0_d_555_552" x="0" y="0.5" width="208" height="281" filterUnits="userSpaceOnUse" color-interpolation-filters="sRGB">
<feFlood flood-opacity="0" result="BackgroundImageFix"/>
<feColorMatrix in="SourceAlpha" type="matrix" values="0 0 0 0 0 0 0 0 0 0 0 0 0 0 0 0 0 0 127 0" result="hardAlpha"/>
<feOffset dy="4"/>
<feGaussianBlur stdDeviation="2"/>
<feComposite in2="hardAlpha" operator="out"/>
<feColorMatrix type="matrix" values="0 0 0 0 0 0 0 0 0 0 0 0 0 0 0 0 0 0 0.25 0"/>
<feBlend mode="normal" in2="BackgroundImageFix" result="effect1_dropShadow_555_552"/>
<feBlend mode="normal" in="SourceGraphic" in2="effect1_dropShadow_555_552" result="shape"/>
</filter>
</defs>
</svg>
