<svg width="30" height="31" viewBox="0 0 30 31" fill="#000000" xmlns="http://www.w3.org/2000/svg">
<path d="M27.6667 30.5L17.1667 20C16.3333 20.6667 15.375 21.1944 14.2917 21.5833C13.2083 21.9722 12.0556 22.1667 10.8333 22.1667C7.80556 22.1667 5.24333 21.1178 3.14667 19.02C1.05 16.9222 0.00111199 14.36 8.81834e-07 11.3333C-0.00111023 8.30667 1.04778 5.74444 3.14667 3.64667C5.24556 1.54889 7.80778 0.5 10.8333 0.5C13.8589 0.5 16.4217 1.54889 18.5217 3.64667C20.6217 5.74444 21.67 8.30667 21.6667 11.3333C21.6667 12.5556 21.4722 13.7083 21.0833 14.7917C20.6944 15.875 20.1667 16.8333 19.5 17.6667L30 28.1667L27.6667 30.5ZM10.8333 18.8333C12.9167 18.8333 14.6878 18.1044 16.1467 16.6467C17.6056 15.1889 18.3344 13.4178 18.3333 11.3333C18.3322 9.24889 17.6033 7.47833 16.1467 6.02167C14.69 4.565 12.9189 3.83556 10.8333 3.83333C8.74778 3.83111 6.97722 4.56056 5.52167 6.02167C4.06611 7.48278 3.33667 9.25333 3.33333 11.3333C3.33 13.4133 4.05945 15.1844 5.52167 16.6467C6.98389 18.1089 8.75445 18.8378 10.8333 18.8333Z" fill="#111111"/>
</svg>
